<mxfile host="app.diagrams.net" agent="Mozilla/5.0 (Macintosh; Intel Mac OS X 10_15_7) AppleWebKit/537.36 (KHTML, like Gecko) Chrome/140.0.0.0 Safari/537.36" version="28.2.4">
  <diagram name="Page-1" id="5ZiaZIWKJTceb_jDX48N">
    <mxGraphModel dx="785" dy="544" grid="1" gridSize="10" guides="1" tooltips="1" connect="1" arrows="1" fold="1" page="1" pageScale="1" pageWidth="850" pageHeight="1100" math="0" shadow="0">
      <root>
        <mxCell id="0" />
        <mxCell id="1" parent="0" />
        <mxCell id="JhSccU5trPCaZjTDT1bW-1" value="Outcomes" style="whiteSpace=wrap;strokeWidth=2;sketch=1;curveFitting=1;jiggle=2;" vertex="1" parent="1">
          <mxGeometry x="20" y="171" width="855" height="104" as="geometry" />
        </mxCell>
        <mxCell id="JhSccU5trPCaZjTDT1bW-2" value="Massive PR Coverage" style="whiteSpace=wrap;strokeWidth=2;sketch=1;curveFitting=1;jiggle=2;" vertex="1" parent="1">
          <mxGeometry x="55" y="196" width="208" height="54" as="geometry" />
        </mxCell>
        <mxCell id="JhSccU5trPCaZjTDT1bW-3" value="High-Authority Backlinks" style="whiteSpace=wrap;strokeWidth=2;sketch=1;curveFitting=1;jiggle=2;" vertex="1" parent="1">
          <mxGeometry x="313" y="196" width="235" height="54" as="geometry" />
        </mxCell>
        <mxCell id="JhSccU5trPCaZjTDT1bW-4" value="Surge in Enterprise Leads" style="whiteSpace=wrap;strokeWidth=2;sketch=1;curveFitting=1;jiggle=2;" vertex="1" parent="1">
          <mxGeometry x="598" y="196" width="241" height="54" as="geometry" />
        </mxCell>
        <mxCell id="JhSccU5trPCaZjTDT1bW-5" value="Leverage Proprietary Data&#xa;to Create Annual Report" style="whiteSpace=wrap;strokeWidth=2;sketch=1;curveFitting=1;jiggle=2;" vertex="1" parent="1">
          <mxGeometry x="307" y="20" width="248" height="78" as="geometry" />
        </mxCell>
        <mxCell id="JhSccU5trPCaZjTDT1bW-6" value="Generates" style="curved=1;startArrow=none;endArrow=block;exitX=0;exitY=0.94;entryX=0.5;entryY=-0.01;rounded=0;sketch=1;curveFitting=1;jiggle=2;" edge="1" parent="1" source="JhSccU5trPCaZjTDT1bW-5" target="JhSccU5trPCaZjTDT1bW-2">
          <mxGeometry relative="1" as="geometry">
            <Array as="points">
              <mxPoint x="159" y="134" />
            </Array>
          </mxGeometry>
        </mxCell>
        <mxCell id="JhSccU5trPCaZjTDT1bW-7" value="Generates" style="curved=1;startArrow=none;endArrow=block;exitX=0.5;exitY=1;entryX=0.5;entryY=-0.01;rounded=0;sketch=1;curveFitting=1;jiggle=2;" edge="1" parent="1" source="JhSccU5trPCaZjTDT1bW-5" target="JhSccU5trPCaZjTDT1bW-3">
          <mxGeometry relative="1" as="geometry">
            <Array as="points" />
          </mxGeometry>
        </mxCell>
        <mxCell id="JhSccU5trPCaZjTDT1bW-8" value="Generates" style="curved=1;startArrow=none;endArrow=block;exitX=1;exitY=0.91;entryX=0.5;entryY=-0.01;rounded=0;sketch=1;curveFitting=1;jiggle=2;" edge="1" parent="1" source="JhSccU5trPCaZjTDT1bW-5" target="JhSccU5trPCaZjTDT1bW-4">
          <mxGeometry relative="1" as="geometry">
            <Array as="points">
              <mxPoint x="719" y="134" />
            </Array>
          </mxGeometry>
        </mxCell>
      </root>
    </mxGraphModel>
  </diagram>
</mxfile>
